<svg xmlns="http://www.w3.org/2000/svg" height="800" width="1200" viewBox="-17.38257 -15.60345 150.64894 93.6207"><path d="M8.764 9.205c4.3488 0 7.9788 3.9162 8.635 8.9937V7.4c0-4.0713 3.7188-7.4 8.2625-7.4 4.5425 0 8.2613 3.3287 8.2613 7.4v3.5812c.745-3.285 4.0062-5.7775 7.8875-5.7775 4.425 0 8.0475 3.2438 8.0475 7.2063v3.8587c.22-3.7962 3.8012-6.84 8.15-6.84 4.2475 0 7.765 2.905 8.1287 6.5788v-3.0313c0-3.9162 3.6113-7.12 8.0225-7.12 4.4125 0 8.0225 3.2038 8.0225 7.12v3.0313c.3038-.6538.9213-2.1825 1.4038-2.9888 1.3875-2.3012 4.0437-3.865 7.0787-3.865 3.7788 0 6.975 2.4275 7.8538 5.685v-4.1725c0-4.2387 3.8937-7.7075 8.6525-7.7075 4.76 0 8.6512 3.4688 8.6512 7.7075v8.3913h.0375v27.1287c0 4.2388-3.8937 7.7075-8.655 7.7075-4.7587 0-8.6525-3.4687-8.6525-7.7075V49.37c0 4.1187-3.6175 7.49-8.0425 7.49-4.4237 0-8.0387-3.3713-8.0387-7.49v-2.22c-.6175 3.7237-4.0438 6.5962-8.145 6.5962-4.2138 0-7.7175-3.035-8.1888-6.9062v2.7975c0 3.9675-3.6837 7.21-8.19 7.21-4.505 0-8.1912-3.2425-8.1912-7.21v5.57c0 3.965-3.6213 7.2062-8.0475 7.2062-4.4263 0-8.0463-3.2412-8.0463-7.2062v-4.2c-.7475 3.3962-4.1062 5.98-8.105 5.98-4.5437 0-8.2625-3.33-8.2625-7.4v-3.8138c-.8762 4.7463-4.3775 8.32-8.53 8.32-4.8075 0-8.7425-4.7912-8.7425-10.645v-23.595c0-5.8575 3.935-10.6487 8.7425-10.6487" fill="#f9e307" fill-rule="evenodd"/><path d="M9.0888 29.924c3.62 0 6.745 2.1375 8.2075 5.2325 1.4487-3.1275 4.5925-5.2975 8.2375-5.2975 3.5287 0 6.585 2.0287 8.0912 4.995 1.4963-2.9988 4.5725-5.0588 8.1225-5.0588 3.5738 0 6.665 2.0813 8.1513 5.11 1.4975-2.9862 4.5687-5.035 8.1112-5.035 3.5713 0 6.6625 2.0825 8.1488 5.1125 1.4987-2.9875 4.5687-5.0362 8.1112-5.0362 3.5125 0 6.56 2.0137 8.075 4.9612 1.505-2.97 4.5663-5.0037 8.0938-5.0037 3.5862 0 6.69 2.1 8.1662 5.15 1.4725-3.0725 4.5825-5.19 8.1888-5.19 5.0175 0 9.09 4.11 9.09 9.1812 0 5.0688-4.0725 9.18-9.09 9.18-3.5888 0-6.6888-2.1-8.1688-5.1475-1.47 3.07-4.5825 5.1888-8.1862 5.1888-3.5125 0-6.56-2.0138-8.0738-4.9613-1.5062 2.97-4.565 5.0025-8.095 5.0025-3.5725 0-6.6637-2.0837-8.1475-5.1125-1.5012 2.9888-4.57 5.0363-8.1125 5.0363-3.5725 0-6.6625-2.0838-8.15-5.11-1.4987 2.9862-4.57 5.035-8.1125 5.035-3.525 0-6.5825-2.0313-8.0912-4.995-1.4938 3-4.57 5.0587-8.1225 5.0587-3.6175 0-6.745-2.14-8.2075-5.235-1.4475 3.13-4.5925 5.2988-8.2375 5.2988-5.02 0-9.0888-4.11-9.0888-9.18 0-5.0688 4.0688-9.18 9.0888-9.18" fill="#e61d25" fill-rule="evenodd"/><path d="M76.0224 37.3812c-.4538-.4575-1.0788-.7425-1.7725-.7425-.6938 0-1.3213.285-1.775.7425a2.5493 2.5493 0 00-.735 1.7913c0 .7.2837 1.3325.735 1.7912.4537.4575 1.0812.7425 1.775.7425.6937 0 1.3187-.285 1.7725-.7425a2.5387 2.5387 0 00.735-1.7912 2.5387 2.5387 0 00-.735-1.7913m.7987-7.0675a9.0726 9.0726 0 012.2575 1.02v7.8388a4.8864 4.8864 0 01-1.4162 3.4487c-.8738.8813-2.08 1.4288-3.4125 1.4288s-2.5413-.5475-3.415-1.4288c-.875-.8837-1.4138-2.1025-1.4138-3.4487 0-1.3463.5388-2.5663 1.4138-3.45.8737-.8813 2.0825-1.4275 3.415-1.4275.945 0 1.8262.275 2.5712.75z" fill="#fff" fill-rule="evenodd"/><path d="M11.0101 37.3459c-.4537-.4588-1.0812-.7438-1.7725-.7438-.6937 0-1.3212.285-1.775.7438-.4537.4562-.735 1.0912-.735 1.79 0 .7.2813 1.3337.735 1.7912.4538.4575 1.0813.7425 1.775.7425.6913 0 1.3188-.285 1.7725-.7425a2.5364 2.5364 0 00.735-1.7912c0-.6988-.2812-1.3338-.735-1.79m-1.7725-3.0863c1.33 0 2.5388.545 3.4125 1.4275.875.8838 1.4138 2.1025 1.4138 3.4488 0 1.3475-.5388 2.565-1.4138 3.4475-.8737.8837-2.0825 1.43-3.4125 1.43-1.3325 0-2.5412-.5463-3.415-1.43-.875-.8825-1.4137-2.1-1.4137-3.4475 0-1.3463.5387-2.565 1.4137-3.4488.8738-.8825 2.0825-1.4275 3.415-1.4275m18.0445 2.9995c-.4562-.4575-1.0837-.74-1.7725-.74-.6937 0-1.3212.2825-1.775.74a2.5387 2.5387 0 00-.735 1.7913c0 .7.2813 1.3325.735 1.7912.4538.4575 1.0813.7425 1.775.7425.6888 0 1.3163-.285 1.7725-.7425.4538-.4587.7325-1.0912.7325-1.7912 0-.6988-.2787-1.3338-.7325-1.7913m-1.7725-3.085c1.33 0 2.5388.545 3.4125 1.4288.875.8812 1.4138 2.1012 1.4138 3.4475 0 1.3487-.5388 2.565-1.4138 3.4487-.8737.8825-2.0825 1.4313-3.4125 1.4313-1.335 0-2.5412-.5488-3.4175-1.4313-.8725-.8837-1.4137-2.1-1.4137-3.4487 0-1.3463.5412-2.5663 1.4137-3.4475.8763-.8838 2.0825-1.4288 3.4175-1.4288m30.1857 3.3316c.31-.8687 1.23-1.5 2.3212-1.5 1.09 0 2.015.6313 2.3225 1.5zm2.38-3.3925c1.3362 0 2.5425.5463 3.4162 1.4288.8713.8837 1.4138 2.1025 1.4138 3.4487 0 .055 0 .11-.0025.1688h-7.625c.09 1.47 1.2787 2.6375 2.735 2.6375 1.1637 0 2.1575-.745 2.5525-1.7988h2.2375a4.9274 4.9274 0 01-1.3113 2.44c-.8737.8838-2.08 1.4288-3.4162 1.4288-1.3325 0-2.5413-.545-3.4125-1.4288-.8763-.8812-1.4163-2.1012-1.4163-3.4475 0-1.3462.54-2.565 1.4163-3.4487.8712-.8825 2.08-1.4288 3.4125-1.4288m-16.2155-.0266c1.3325 0 2.5412.545 3.415 1.4288a4.878 4.878 0 011.4112 3.2925h-2.3212c-.0388-.6363-.3125-1.21-.73-1.635-.4538-.4588-1.0813-.7413-1.775-.7413-.6913 0-1.3188.2825-1.7725.7413-.42.425-.6913.9987-.73 1.635h.01v4.995h-2.3338v-4.995c.0413-1.2838.5738-2.445 1.4138-3.2925.8737-.8838 2.08-1.4288 3.4125-1.4288m50.4247 3.3105c-.4537-.4587-1.0812-.7425-1.775-.7425-.6912 0-1.3187.2838-1.7725.7425a2.5339 2.5339 0 00-.735 1.79c0 .7.2813 1.3338.735 1.7913.4538.4575 1.0813.7425 1.7725.7425.6938 0 1.3213-.285 1.775-.7425a2.547 2.547 0 00.735-1.7913 2.544 2.544 0 00-.735-1.79m-1.775-3.0862c1.3325 0 2.5413.5462 3.4138 1.43.8762.8812 1.415 2.1 1.415 3.4462 0 1.3475-.5388 2.565-1.415 3.4488-.8725.8825-2.0813 1.4287-3.4138 1.4287s-2.5387-.5462-3.415-1.4287c-.8725-.8838-1.4112-2.1013-1.4112-3.4488 0-1.3462.5387-2.565 1.4112-3.4462.8763-.8838 2.0825-1.43 3.415-1.43m18.0885 3.0276c-.4537-.4575-1.0812-.7425-1.7725-.7425-.6937 0-1.3212.285-1.775.7425a2.5478 2.5478 0 00-.735 1.7925 2.541 2.541 0 00.735 1.7887c.4538.4588 1.0813.7438 1.775.7438.6913 0 1.3188-.285 1.7725-.7438.4538-.4562.735-1.09.735-1.7887 0-.7013-.2812-1.335-.735-1.7925m-1.7725-3.0863c1.33 0 2.5388.5475 3.4125 1.4313.875.8812 1.4138 2.1 1.4138 3.4475 0 1.345-.5388 2.565-1.4138 3.4487-.8737.8813-2.0825 1.4263-3.4125 1.4263-1.3325 0-2.5412-.545-3.415-1.4263-.875-.8837-1.4137-2.1037-1.4137-3.4487 0-1.3475.5387-2.5663 1.4137-3.4475.8738-.8838 2.0825-1.4313 3.415-1.4313" fill="#fff"/><path d="M43.4955 20.6369a2.4985 2.4985 0 00-1.7825-.745c-.6925 0-1.3225.285-1.7775.745-.4587.46-.7387 1.095-.7387 1.7962 0 .705.28 1.3413.7387 1.8.455.4613 1.085.745 1.7775.745a2.4933 2.4933 0 001.7825-.745c.4563-.4587.7375-1.095.7375-1.8a2.5421 2.5421 0 00-.7375-1.7962m16.2113-.0075c-.4563-.4588-1.0838-.745-1.78-.745-.6963 0-1.3263.2862-1.7825.745-.4538.4625-.7375 1.0987-.7375 1.8 0 .7025.2837 1.34.7375 1.8.4562.46 1.0862.745 1.7825.745.6962 0 1.3237-.285 1.78-.745.4562-.46.7375-1.0975.7375-1.8a2.5554 2.5554 0 00-.7375-1.8m-1.78-2.9363c1.2937 0 2.4662.5288 3.315 1.3875a4.7497 4.7497 0 011.375 3.3488 4.7475 4.7475 0 01-1.375 3.3487c-.8488.86-2.0213 1.39-3.315 1.39-1.2963 0-2.4688-.53-3.3175-1.39-.8475-.855-1.3725-2.0412-1.3725-3.3487 0-1.3063.525-2.4938 1.3725-3.3488.8487-.8587 2.0212-1.3875 3.3175-1.3875m-32.4413-.0612c1.32 0 2.5125.5387 3.3763 1.4137.825.83 1.3475 1.9625 1.3962 3.2175h.0275v4.9475h-2.2412v-4.9475a2.5957 2.5957 0 00-.745-1.64c-.4638-.4675-1.1063-.7587-1.8138-.7587-.7087 0-1.35.2912-1.8137.7587-.425.4263-.6988 1.0025-.745 1.64v4.9475H20.698v-4.9475h.0138c.05-1.255.5712-2.3875 1.395-3.2175.8662-.875 2.0575-1.4137 3.3787-1.4137m66.6263 2.8687c-.455-.4625-1.085-.7475-1.78-.7475-.6963 0-1.3263.285-1.78.7475-.4563.4588-.7375 1.095-.7375 1.7963 0 .705.2812 1.34.7375 1.8a2.4865 2.4865 0 001.78.7437 2.491 2.491 0 001.78-.7437c.4562-.46.7387-1.095.7387-1.8a2.541 2.541 0 00-.7387-1.7963m-1.78-2.94c1.2962 0 2.4675.5325 3.3175 1.3863.8475.86 1.3725 2.0425 1.3725 3.35v4.82h-1.9563v-.97c-.7712.5587-1.7137.8887-2.7337.8887-1.2938 0-2.4688-.5325-3.3163-1.3887-.8487-.8575-1.3737-2.0413-1.3737-3.35 0-1.3075.525-2.49 1.3737-3.35.8475-.8538 2.0225-1.3863 3.3163-1.3863m-82.1825.0813h2.265v9.5675h-2.265zm96.2475.3412h1.1912V14.072h2.1625v3.9112h1.3238v2.035h-1.3238v3.6363c-.0212.8912.3988 1.3012 1.4013 1.4312v2.085c-2.1988-.0325-3.6475-.5275-3.5638-3.5162V20.018h-1.1912zm-27.8713 2.49c-.8375-.7737-1.9312-1.0475-2.6225-1.05-.915-.005-1.4275 1.0275-.4812 1.47.2987.1363.6787.2363 1.06.3488 1.7412.5137 3.5325 1.045 3.3475 3.385-.0538.6487-.3 1.18-.6888 1.5937-.3712.3875-.85.6538-1.3962.8025-.4888.135-1.035.1738-1.5988.13-1.3512-.1125-2.8037-.6637-3.9-1.7162l1.1875-1.5775c.7638.7325 1.9213 1.2312 2.8688 1.3075.3462.0275.6662.0062.9325-.0675.2075-.055.3725-.1388.4775-.2513.0812-.0875.1375-.2125.15-.3775.06-.7337-.95-1.0337-1.9263-1.3212-1.5925-.4713-3.145-.9288-3.1325-2.8513.0025-.625.175-1.175.4875-1.6275.2838-.4087.6713-.7287 1.14-.94.4325-.1925.9338-.2962 1.4825-.2937 1.06.0037 2.3313.4125 3.6325 1.33zm-34.8125-2.775c.9525 0 1.8363.285 2.5763.7775V13.467h2.1162v8.9662c0 1.31-.525 2.4938-1.3737 3.3525-.8475.855-2.0225 1.3875-3.3188 1.3875-1.2937 0-2.465-.5325-3.315-1.3875-.85-.8587-1.3725-2.0425-1.3725-3.3525 0-1.305.5225-2.49 1.3725-3.3475.85-.8562 2.0213-1.3875 3.315-1.3875" fill="#211916"/><path d="M55.6953 37.5057c.31-.8687 1.23-1.5 2.3212-1.5 1.09 0 2.015.6313 2.3225 1.5z" fill="#e61d25" fill-rule="evenodd"/></svg>